<svg xmlns="http://www.w3.org/2000/svg" xmlns:xlink="http://www.w3.org/1999/xlink" viewBox="0 0 154.77 95.59"><defs><clipPath id="a" transform="translate(-8.73 -20.62)"><rect x="-340.76" y="-102.22" width="841.89" height="595.28" fill="none"/></clipPath></defs><title>logo</title><g clip-path="url(#a)"><path d="M127.3,20.62l-87.42,62L21.61,60.71l-12.88,19,12,36.52H122.17L163.5,55.5Z" transform="translate(-8.73 -20.62)" fill="#7ab800"/><path d="M163.5,55.5,67.84,116.21h54.33Z" transform="translate(-8.73 -20.62)" fill="#5c8f21"/><path d="M67.84,116.21H20.71l-12-36.52Z" transform="translate(-8.73 -20.62)" fill="#69a617"/><path d="M127.3,20.62l-87.42,62,28,33.57Z" transform="translate(-8.73 -20.62)" fill="#69a617"/><g clip-path="url(#a)"><path d="M142.24,45.38a10.24,10.24,0,1,0-3.1,7.22,10.26,10.26,0,0,0,3.1-7.22" transform="translate(-8.73 -20.62)" fill="#fff"/><path d="M137.1,45.25A5.13,5.13,0,1,0,132,50.38a5.13,5.13,0,0,0,5.13-5.13h0" transform="translate(-8.73 -20.62)"/></g></g></svg>