<?xml version="1.0" encoding="utf-8"?>
<!-- Generator: Adobe Illustrator 23.0.1, SVG Export Plug-In . SVG Version: 6.00 Build 0)  -->
<svg version="1.1" id="Layer_1" xmlns="http://www.w3.org/2000/svg" xmlns:xlink="http://www.w3.org/1999/xlink" x="0px" y="0px"
	 viewBox="0 0 1471.3 1246.4" style="enable-background:new 0 0 1471.3 1246.4;" xml:space="preserve">
<style type="text/css">
	.st0{fill:none;stroke:#636463;stroke-miterlimit:10;}
	.st1{opacity:0.99;fill:#6D6D6D;stroke:#636463;stroke-miterlimit:10;}
	.st2{fill:none;stroke:#636463;stroke-linecap:round;stroke-linejoin:round;}
	.st3{fill:#6D6D6D;stroke:#000000;stroke-miterlimit:10;}
</style>
<title>padron</title>
<g>
	<polygon class="st0" points="-14.8,-9.2 -14.8,-9.3 -14.8,-9.3 	"/>
	<polygon class="st1" points="1296,880.1 1296,880.1 1296.2,880 1296,880.1 	"/>
	<path class="st1" d="M1100.4,1131.8C1100.4,1131.8,1100.4,1131.8,1100.4,1131.8l-31.8-29.1L1100.4,1131.8z"/>
	<polygon class="st1" points="1171.5,841.1 1296,880.2 1296,880.1 	"/>
	<polygon class="st1" points="1336,513.1 1431.7,678.4 1431.8,678.4 1336,513.1 	"/>
	<polygon class="st1" points="901.7,251.3 901.7,251.3 901.7,251.3 	"/>
	<polygon class="st1" points="901.4,251.2 901.5,251.2 901.5,251.1 901.4,251.2 	"/>
	<polygon class="st1" points="901.9,251.5 1102.3,294.1 1102.2,293.9 901.7,251.3 901.7,251.3 	"/>
	<polygon class="st1" points="827.9,866.2 868.5,887 728.1,938.1 728.1,938.4 812.7,1076.4 728.2,938.3 868.7,887.1 812.7,1076.4 
		868.8,887.1 	"/>
	<polygon class="st1" points="634.1,1076.5 647.7,1136.3 634.1,1076.5 	"/>
	<polygon class="st1" points="901.4,251.2 901.4,251.1 901.3,251.1 901.4,251.2 	"/>
	<polygon class="st1" points="1336,513 1336,513.1 1469.3,458.3 1469.3,458.3 1336,513 	"/>
	<polygon class="st1" points="952.4,1027.9 812.7,1076.4 952.4,1027.9 952.4,1027.9 	"/>
	<polygon class="st1" points="1367.8,139.3 1270.8,147.6 1162.9,120.1 1162.8,120.2 1270.9,147.7 	"/>
	<polygon class="st1" points="868.7,886.8 868.7,886.9 868.7,886.9 868.7,886.9 	"/>
	<polygon class="st1" points="1185.2,242.2 1185.1,242.3 1185.1,242.4 1185.3,242.3 1185.3,242.2 1185.3,242.2 1367.8,139.3 
		1185.2,242.1 1162.8,120.2 1185,242.2 	"/>
	<polygon class="st1" points="1185.1,242.3 1185,242.2 1033.2,163.5 1185,242.4 	"/>
	<polygon class="st1" points="785.8,758.9 725.7,813.8 665.5,749.5 665.4,749.5 665.4,749.5 725.6,813.8 725.7,813.8 785.9,759 
		785.9,759 	"/>
	<polygon class="st1" points="624.9,289.7 624.9,289.6 624.9,289.6 624.9,289.7 	"/>
	<polygon class="st1" points="1469.3,809.9 1469.3,809.9 1432,823 	"/>
	<polygon class="st1" points="624.9,289.6 624.9,289.6 624.9,289.7 	"/>
	<polygon class="st1" points="625,289.6 625,289.6 625,289.7 	"/>
	<polygon class="st1" points="776.2,502.6 776.2,502.6 776.2,502.6 669.3,516 554.6,386.9 669.3,516.1 	"/>
	<polygon class="st1" points="728.1,369.7 728.1,369.7 901.5,251.3 901.5,251.3 901.2,251.3 728.1,369.5 728.1,369.6 728,369.6 
		728,369.6 728,369.6 554.6,386.9 728.1,369.6 	"/>
	<polygon class="st1" points="624.8,289.8 554.6,386.9 624.8,289.8 	"/>
	<polygon class="st1" points="624.9,289.7 624.9,289.7 624.9,289.7 624.9,289.7 	"/>
	<polygon class="st1" points="1087.4,423.6 1087.5,423.6 901.9,251.5 901.8,251.4 	"/>
	<polygon class="st1" points="625.1,289.8 901.2,251.3 901.4,251.2 901.3,251.1 625,289.6 625,289.7 	"/>
	<polygon class="st1" points="1102.3,294.1 1102.3,294.1 1102.3,294.1 	"/>
	<polygon class="st1" points="497.7,654 431.2,463.2 554.6,581.6 431.3,463.1 431.2,463.2 497.7,653.8 497.7,654 	"/>
	<polygon class="st1" points="1431.9,678.4 1469.3,687.9 1469.3,687.9 1431.9,678.3 	"/>
	<polygon class="st1" points="625,289.8 728,369.6 728,369.6 728.1,369.5 625.1,289.8 	"/>
	<polygon class="st1" points="213.9,662.6 213.9,662.6 50.4,552.3 213.8,662.6 	"/>
	<polygon class="st1" points="497.6,653.9 497.7,653.8 267.5,608.8 267.4,608.9 	"/>
	<polygon class="st1" points="497.6,653.9 395.1,754.2 497.7,654 497.7,654 	"/>
	<polygon class="st1" points="497.7,654 497.7,654 523.7,828.2 523.7,828.2 	"/>
	<polygon class="st1" points="267.3,608.9 267.3,608.9 267.3,608.9 267.4,608.9 	"/>
	<polygon class="st1" points="717.7,125.9 795.5,178.9 717.8,125.9 717.7,125.9 684.2,185.1 	"/>
	<path class="st1" d="M1391.5,1015.1l2.2,86.1c0,0,0,0,0.1,0l-2.2-86.1L1391.5,1015.1z"/>
	<path class="st1" d="M1453.1,1068.7L1453.1,1068.7L1453.1,1068.7L1453.1,1068.7l-61.4-53.7l0.1-0.1l40-191.9l0,0l-40.2,192h0
		l61.3,53.6l-10.6,27.5c0.1,0,0.1,0,0.2,0L1453.1,1068.7l16.2,17.7v0L1453.1,1068.7z"/>
	<polygon class="st1" points="267.3,608.9 267.2,608.8 267.2,608.9 	"/>
	<polygon class="st1" points="267.3,608.9 267.3,608.9 267.3,608.9 	"/>
	<polygon class="st1" points="267.3,609 267.2,608.9 267.2,608.9 	"/>
	<polygon class="st1" points="213.9,662.6 213.9,662.6 267.2,608.9 267.1,608.9 	"/>
	<polygon class="st1" points="786,759 785.9,759 785.9,759 868.6,886.8 868.7,886.8 	"/>
	<polygon class="st1" points="232.6,875.9 232.6,875.9 395,754.3 395,754.2 	"/>
	<polygon class="st1" points="72.4,263 72.4,263 72.4,263 	"/>
	<polygon class="st1" points="1440.3,151.8 1440.3,151.8 1440.3,151.8 	"/>
	<path class="st1" d="M72.1,262.3L-0.6,34.9c0,33.6-0.1,67.1-0.1,100.7L72.1,262.3z"/>
	<polygon class="st1" points="31.2,257.7 31.2,257.7 72.4,263 72.3,263 	"/>
	<polygon class="st1" points="72.4,263 72.4,263 72.4,263 	"/>
	<polygon class="st1" points="1469.3,518.7 1431.8,678.3 1431.9,678.2 1469.3,518.8 	"/>
	<polygon class="st1" points="1410.5,96.9 1410.4,96.9 1410.3,96.9 1410.4,97 	"/>
	<polygon class="st1" points="1367.8,139.3 1374.5,353.4 1185.3,242.5 1185.3,242.5 1374,353.5 1374.5,353.5 1453.1,274.5 
		1453.1,274.5 1453.1,274.5 1453.1,274.4 1374.5,353.4 	"/>
	<polygon class="st1" points="1431.8,823.1 1431.8,823.1 1431.8,823.1 	"/>
	<polygon class="st1" points="1431.8,823 1296.2,880 1431.8,823.1 1431.8,823.1 	"/>
	<path class="st1" d="M30.1,257.5l-30.9-4c0,0,0,0,0,0L30.1,257.5L30.1,257.5z"/>
	<polygon class="st1" points="1431.8,678.5 1431.9,678.4 1431.8,678.3 	"/>
	<path class="st1" d="M273.9,338.6l157.2,124.5l0,0L273.8,338.4L72.4,263l-73.3,34.5c0,0,0,0.1,0,0.1l73.3-34.4L273.9,338.6z"/>
	<polygon class="st1" points="1431.9,678.3 1431.9,678.2 1431.8,678.3 	"/>
	<polygon class="st1" points="771.6,-0.3 771.6,-0.3 717.7,125.8 717.7,125.8 	"/>
	<polygon class="st1" points="389.7,78.7 311.7,130.4 389.8,78.9 	"/>
	<polygon class="st1" points="450.3,262.9 450.4,262.9 565.2,150.8 565.1,150.7 311.7,130.4 565.1,150.8 	"/>
	<polygon class="st1" points="901.5,251.1 901.5,251.1 884.8,173.6 901.4,251.1 	"/>
	<polygon class="st1" points="1162.9,120.1 1221.5,79 1221.5,78.9 1162.8,120 1162.8,120.1 	"/>
	<polygon class="st1" points="565.1,150.7 389.9,78.7 389.9,78.8 	"/>
	<polygon class="st1" points="72.4,263 72.4,262.7 72.1,262.3 72.3,263 	"/>
	<polygon class="st1" points="50.3,552.3 -1.2,550.5 -1.2,550.5 50.3,552.3 	"/>
	<polygon class="st1" points="513.3,-0.3 513.3,-0.3 565.1,150.7 565.2,150.7 	"/>
	<polygon class="st1" points="72.4,263 72.5,262.9 72.4,262.7 72.4,263 	"/>
	<polygon class="st1" points="1410.3,96.9 1367.8,139.3 1410.4,97 	"/>
	<polygon class="st1" points="1440.3,151.8 1440.3,151.8 1440.3,151.8 1440.3,151.8 	"/>
	<polygon class="st1" points="1444.3,78.9 1442,121.9 1444.4,78.9 1444.3,78.9 1410.4,96.8 1410.4,96.9 	"/>
	<polygon class="st1" points="1410.4,96.8 1410.3,96.7 1410.3,96.9 	"/>
	<polygon class="st1" points="1440.4,151.8 1440.4,151.8 1442,121.9 1440.3,151.7 	"/>
	<polygon class="st1" points="1102.4,294.1 1102.4,293.9 1102.3,293.9 1102.4,294.1 	"/>
	<polygon class="st1" points="624.9,289.6 565.2,150.8 624.9,289.6 	"/>
	<polygon class="st1" points="267.3,608.9 267.3,609 267.3,609 395,754.2 395.1,754.3 395.1,754.2 	"/>
	<polygon class="st1" points="232.4,1022.3 386.4,990.6 386.4,990.6 	"/>
	<polygon class="st1" points="5.7,793.7 232.4,876 232.4,876 	"/>
	<polygon class="st1" points="523.8,828.4 586.3,938.4 523.8,828.3 	"/>
	<polygon class="st1" points="395.2,754.3 498,813.5 395.1,754.2 	"/>
	<polygon class="st1" points="5.5,793.6 50.4,552.3 50.3,552.4 5.5,793.6 5.5,793.6 	"/>
	<polygon class="st1" points="554.6,386.9 450.3,263 450.2,263 450.3,263 450.3,263 450.2,263 450.2,263 	"/>
	<polygon class="st1" points="450.3,263 624.8,289.8 624.9,289.6 450.4,262.9 450.3,263 	"/>
	<polygon class="st1" points="431.2,463.1 431.2,463.1 431.1,463.1 431.2,463.2 	"/>
	<polygon class="st1" points="1005.6,774.8 1171.5,841.1 1171.3,840.8 1005.6,774.5 1058.1,724 1005.6,774.4 1005.6,774.5 
		1005.5,774.5 868.9,886.7 868.8,886.8 1005.5,774.5 1041.2,946.4 868.7,887 868.8,887.1 1041.3,946.5 	"/>
	<polygon class="st1" points="214,480.6 50.4,552.3 50.3,552.3 50.4,552.3 	"/>
	<polygon class="st1" points="5.5,793.6 5.5,793.6 -1.5,797.7 -1.5,797.7 	"/>
	<polygon class="st1" points="1391.5,1015.1 1391.5,1015.1 1391.5,1015.1 	"/>
	<polygon class="st1" points="5.5,793.6 -1.5,788.8 -1.5,788.8 5.5,793.6 	"/>
	<polygon class="st1" points="1214,1031.3 1214,1031.2 1213.9,1031 	"/>
	<polygon class="st1" points="1214,1031 1214,1031 1097.3,973.9 	"/>
	<polygon class="st1" points="1214.1,1031 1214.1,1031 1171.5,841.1 	"/>
	<polygon class="st1" points="1214.1,1031 1214.1,1031 1214.1,1031 	"/>
	<polygon class="st1" points="1190,1098.5 1190.1,1098.6 1190.1,1098.6 1190.1,1098.6 1214,1031.3 1213.9,1031 	"/>
	<polygon class="st1" points="1041.3,946.6 1068.6,1102.7 1041.3,946.6 	"/>
	<polygon class="st1" points="952.4,1027.9 952.4,1027.9 952.4,1027.9 	"/>
	<polygon class="st1" points="1190,1098.6 1190,1098.6 1190,1098.6 1190.1,1098.6 1190,1098.5 	"/>
	<path class="st1" d="M92.6,1013.5L5.6,793.8l-0.1,0l0-0.1l0-0.1h0l-7,15.5c0,22,0,44-0.1,65.9l41.1,103.7L92.6,1013.5L232.4,876
		L92.6,1013.5z"/>
	<polygon class="st1" points="1190,1098.6 1190,1098.6 1190,1098.6 	"/>
	<polygon class="st1" points="901.5,574 901.5,573.9 901.4,573.9 	"/>
	<polygon class="st1" points="1041.3,946.5 1041.3,946.5 1041.3,946.5 1041.3,946.5 	"/>
	<polygon class="st1" points="1162.8,120.1 1162.8,120 1162.7,120.1 	"/>
	<polygon class="st1" points="1041.3,946.6 1041.4,946.6 1041.3,946.5 	"/>
	<polygon class="st1" points="1041.3,946.5 1041.3,946.5 1041.3,946.6 1041.3,946.6 1041.3,946.5 	"/>
	<polygon class="st1" points="1041.4,946.5 1041.4,946.5 1041.4,946.5 	"/>
	<polygon class="st1" points="1469.3,364.5 1453.1,274.5 1453.1,274.5 1469.3,364.6 	"/>
	<polygon class="st1" points="1041.3,946.4 1041.3,946.5 1041.3,946.5 	"/>
	<polygon class="st1" points="1041.3,946.5 1041.3,946.5 1041.3,946.5 	"/>
	<polygon class="st1" points="1041.3,946.5 1041.3,946.5 1041.3,946.5 	"/>
	<polygon class="st1" points="1041.3,946.5 1041.3,946.5 1041.3,946.5 	"/>
	<polygon class="st1" points="431.2,463.2 431.2,463.2 431.2,463.2 	"/>
	<polygon class="st1" points="291,-0.3 291,-0.3 311.7,130.4 	"/>
	<polygon class="st1" points="1087.5,423.6 1087.5,423.6 1087.5,423.6 	"/>
	<polygon class="st1" points="1041.4,946.5 1041.4,946.5 1171.5,841.1 1041.3,946.5 	"/>
	<polygon class="st1" points="1374.4,353.7 1238,484.2 1374.4,353.7 	"/>
	<polygon class="st1" points="725.6,814 725.5,813.9 626.4,821 	"/>
	<polygon class="st1" points="431.2,463.2 431.2,463.2 431.2,463.2 	"/>
	<polygon class="st1" points="431.2,463.2 431.2,463.2 431.2,463.2 	"/>
	<polygon class="st1" points="1374.4,353.6 1374.4,353.7 1374.5,353.6 	"/>
	<polygon class="st1" points="717.6,125.8 555.9,-0.3 555.9,-0.3 717.6,125.8 	"/>
	<polygon class="st1" points="782.6,-0.3 782.6,-0.3 884.8,173.6 	"/>
	<polygon class="st1" points="1399.3,-0.3 1399.3,-0.3 1410.3,96.7 1410.3,96.7 	"/>
	<polygon class="st1" points="134,-0.3 133.9,-0.3 311.7,130.4 	"/>
	<path class="st1" d="M496.5,1194.5c1-0.1,2-0.2,2.9-0.3l-1.7-1.1L496.5,1194.5z"/>
	<path class="st1" d="M791.5,1163.9l21.2-87.5L791.5,1163.9C791.5,1163.9,791.5,1163.9,791.5,1163.9z"/>
	<path class="st1" d="M657.2,1177.8C657.2,1177.8,657.2,1177.8,657.2,1177.8l-9.5-41.5L657.2,1177.8z"/>
	<path class="st1" d="M294.5,1215.6l51.5-117.4L294.5,1215.6C294.5,1215.6,294.5,1215.6,294.5,1215.6z"/>
	<path class="st1" d="M826.1,1160.3C826.1,1160.3,826.1,1160.3,826.1,1160.3l-13.4-83.9L826.1,1160.3z"/>
	<polygon class="st1" points="1444.3,78.8 1444.3,78.9 1444.3,78.9 1444.3,78.9 	"/>
	<polygon class="st1" points="1453.2,274.3 1453.1,274.2 1453.1,274.4 	"/>
	<polygon class="st1" points="634.2,1076.4 728.1,938.4 634.1,1076.4 	"/>
	<path class="st1" d="M101.5,1214.4L-2,1227.7c0,6.2,0,12.5,0,18.7c75.5-7.9,151-15.7,226.5-23.6l-123.1-8.6L101.5,1214.4z"/>
	<polygon class="st1" points="1102.4,294.1 1185.1,242.4 1185.1,242.4 1185,242.4 1102.4,294.1 1102.4,294.1 	"/>
	<path class="st1" d="M21.6,1038.7l-23.4,19.9c0,11.8,0,23.5,0,35.3l94.4-80.4L21.6,1038.7z"/>
	<polygon class="st1" points="50.4,552.1 50.3,552.2 50.3,552.3 	"/>
	<path class="st1" d="M346,1098.2l40.5-107.4l85.8,29.1l25.4,173.2l0,0l-25.4-173.2l161.8,56.6l-0.1-0.2l-161.6-56.6l-0.1,0.1
		l-85.8-29.1l73-48.3l-73.1,48.2L345.8,1098l-113.4-75.7l53.7,194.1c0,0,0.1,0,0.1,0l-53.7-194L346,1098.2z"/>
	<polygon class="st1" points="1453.1,1068.7 1469.3,1058.6 1469.3,1058.6 1453.1,1068.7 	"/>
	<polygon class="st1" points="450.2,263 450.2,263 450.2,263 	"/>
	<polygon class="st1" points="450.2,262.9 450.3,263 450.3,262.9 	"/>
	<polygon class="st1" points="523.9,828.2 524.1,828.2 665.4,749.5 665.2,749.5 	"/>
	<polygon class="st1" points="1469.3,258.8 1469.3,258.8 1453.1,274.5 	"/>
	<polygon class="st1" points="820,698.3 820.1,698.3 820.1,698.3 964.1,704.1 820,698.2 	"/>
	<polygon class="st1" points="554.6,704.1 497.8,653.9 497.7,654 554.6,704.1 	"/>
	<polygon class="st1" points="907.1,774.5 907.1,774.5 907.1,774.5 964.1,704.1 907,774.5 	"/>
	<polygon class="st1" points="1102.4,294.1 1102.3,294.1 1102.4,294.1 1102.4,294.1 	"/>
	<polygon class="st1" points="751.5,671.3 751.5,671.3 785.7,758.8 785.8,758.8 785.8,758.8 751.6,671.4 820,698.2 820.1,698.1 
		751.6,671.1 738.6,601.8 820.1,698.1 820.1,698 738.7,601.8 738.7,601.8 669.3,516.1 738.6,601.8 751.6,671.2 683.7,662.5 
		554.6,581.6 683.6,662.6 	"/>
	<polygon class="st1" points="738.7,601.8 776.3,502.6 776.2,502.6 776.2,502.6 738.7,601.8 	"/>
	<polygon class="st1" points="1221.5,78.9 1322.8,12.8 1348.9,-0.3 1192.3,-0.3 1221.5,78.9 	"/>
	<polygon class="st1" points="1102.4,294.1 1087.5,423.7 1102.4,294.1 	"/>
	<polygon class="st1" points="1440.4,151.9 1452.9,274 1453.1,274.2 1440.5,152 1469.3,147.3 1469.3,147.1 1440.4,151.8 	"/>
	<polygon class="st1" points="1336.1,512.7 1238,484.2 1335.8,513 	"/>
	<polygon class="st1" points="1296,789 1296,789 1296,789 	"/>
	<polygon class="st1" points="1296,789 1296,789 1296,789 	"/>
	<polygon class="st1" points="1336,513 1336,513 1336,513 	"/>
	<polygon class="st1" points="1469.3,64.1 1469.3,-0.3 1407.7,-0.3 1444.3,78.8 	"/>
	<polygon class="st1" points="1283,597 1087.5,423.7 1087.5,423.7 1087.5,423.8 1076.9,705.8 1076.9,705.9 964.1,704.1 1076.8,706 
		1076.9,705.9 1076.9,706 1087.5,423.7 1282.9,597.1 1077,706 1077.1,706.2 1077.1,706.2 1282.9,597.5 1296,789 1296,789 
		1282.9,597.4 1336,513.1 1335.8,513 	"/>
	<polygon class="st1" points="820.1,698.1 820.1,698.1 820.1,698.1 	"/>
	<polygon class="st1" points="1014.7,601.8 901.6,573.9 901.6,573.9 901.6,574.1 1014.7,601.9 964.1,704.1 1014.8,601.9 	"/>
	<polygon class="st1" points="1296,789 1296,789 1296,789.2 1296.3,789 1296,788.9 	"/>
	<polygon class="st1" points="1179.6,345.8 1179.7,345.8 1102.4,294.1 	"/>
	<polygon class="st1" points="1296,789.2 1296,789 1296,789 	"/>
	<polygon class="st1" points="901.4,574 901.4,574 901.4,574 	"/>
	<polygon class="st1" points="765.8,-0.3 567.4,-0.3 689.2,79 	"/>
	<polygon class="st1" points="901.5,574 901.4,574 901.4,574 901.5,574 	"/>
	<polygon class="st1" points="901.5,573.9 776.3,502.6 776.3,502.6 901.4,573.9 	"/>
	<polygon class="st1" points="820.1,698 820.1,698.1 901.4,574 901.4,574 	"/>
	<polygon class="st1" points="717.7,125.9 717.7,125.8 717.7,125.8 717.6,125.8 565.2,150.8 	"/>
	<polygon class="st1" points="1087.5,423.7 1087.5,423.6 1087.5,423.6 1087.5,423.7 	"/>
	<polygon class="st1" points="820,698.2 820,698.3 820,698.3 	"/>
	<polygon class="st1" points="389.9,78.6 389.9,78.7 458.5,-0.3 301.4,-0.3 389.7,78.7 	"/>
	<polygon class="st1" points="776.3,502.6 776.3,502.6 776.3,502.6 776.3,502.6 776.3,502.6 776.2,502.6 776.2,502.6 	"/>
	<polygon class="st1" points="738.7,601.8 738.7,601.8 738.7,601.8 	"/>
	<polygon class="st1" points="819.9,698.3 820,698.3 820,698.2 819.9,698.3 	"/>
	<polygon class="st1" points="1087.5,423.6 1087.5,423.6 1087.5,423.6 	"/>
	<polygon class="st1" points="1087.4,423.6 1087.4,423.6 901.6,455.4 1087.4,423.6 	"/>
	<polygon class="st1" points="884.8,173.6 851.2,78.9 920,-0.3 785.3,-0.3 851.1,78.9 	"/>
	<polygon class="st1" points="1087.5,423.6 1087.5,423.6 1087.5,423.6 	"/>
	<polygon class="st1" points="1087.4,423.7 901.6,573.9 901.6,573.9 901.6,573.9 1087.4,423.7 	"/>
	<polygon class="st1" points="1087.5,423.6 1087.5,423.6 1087.4,423.6 	"/>
	<polygon class="st1" points="1087.4,423.7 1014.7,601.8 1014.7,601.8 1014.8,601.8 1087.5,423.8 1087.5,423.7 	"/>
	<polygon class="st2" points="776.2,-11.3 776.2,-11.1 776.3,-11.1 	"/>
	<polygon class="st2" points="1179.8,1204.4 1179.8,1204.4 1179.7,1204.4 	"/>
	<polygon class="st2" points="776.3,-11.1 776.3,-11.1 776.3,-11.1 	"/>
	<polygon class="st2" points="776.3,-11.1 776.3,-11.1 776.2,-11.1 776.2,-11.1 	"/>
	<polygon class="st2" points="1179.8,1204.4 1179.8,1204.4 1179.8,1204.4 1179.8,1204.4 	"/>
	<polygon class="st2" points="1179.8,1204.4 1179.8,1204.4 1179.9,1204.4 	"/>
	<polygon class="st2" points="-15.7,111.1 -15.6,111.5 -14.9,111 	"/>
	<polygon class="st1" points="901.5,574 901.5,573.9 901.5,573.9 901.5,573.9 901.5,574 	"/>
	<polygon class="st1" points="901.6,573.9 901.5,573.9 901.5,573.9 	"/>
	<polygon class="st1" points="901.6,573.9 1087.4,423.7 1087.4,423.6 901.6,455.4 901.5,455.4 901.5,573.9 	"/>
	<polygon class="st1" points="776.3,502.6 776.3,502.6 776.3,502.6 776.3,502.6 901.5,455.4 776.3,502.6 	"/>
	<polygon class="st1" points="901.5,573.9 901.5,455.4 776.3,502.6 	"/>
	<polygon class="st1" points="901.5,574 901.5,573.9 901.5,574 	"/>
	<polygon class="st1" points="1087.5,423.7 1087.5,423.6 1087.4,423.7 1087.4,423.7 	"/>
	<polygon class="st1" points="72.4,263 72.4,263 72.4,263 72.4,263 	"/>
	<polygon class="st1" points="776.3,502.6 776.3,502.6 776.3,502.6 	"/>
	<polygon class="st1" points="717.6,125.8 717.6,125.8 717.7,125.8 689.2,79 567.4,-0.3 555.9,-0.3 	"/>
	<polygon class="st1" points="717.7,125.8 771.6,-0.3 765.8,-0.3 689.2,79 	"/>
	<polygon class="st1" points="901.6,573.9 901.6,573.9 901.5,573.9 	"/>
	<polygon class="st1" points="1087.5,423.6 1087.4,423.6 1087.4,423.7 1087.5,423.6 	"/>
	<polygon class="st1" points="901.6,573.9 901.6,573.9 901.6,573.9 	"/>
	<polygon class="st1" points="72.4,262.7 99,-0.3 99,-0.3 72.4,262.7 	"/>
	<polygon class="st1" points="901.5,574 901.5,574 901.4,574 901.6,574.1 901.6,573.9 901.5,573.9 	"/>
	<polygon class="st1" points="901.5,573.9 901.5,573.9 901.6,573.9 901.6,573.9 	"/>
	<polygon class="st1" points="1014.7,601.8 1014.8,601.9 1014.8,601.8 	"/>
	<polygon class="st1" points="1014.8,601.9 1076.9,705.9 1076.9,705.8 1014.8,601.8 	"/>
	<polygon class="st1" points="1087.4,423.7 901.6,573.9 1014.7,601.8 1014.7,601.8 	"/>
	<path class="st1" d="M72.4,262.7L99-0.3H-0.6c0,11.8,0,23.5,0,35.3l72.8,227.4L72.4,262.7z"/>
	<polygon class="st1" points="776.3,502.6 776.3,502.6 776.3,502.6 	"/>
	<polygon class="st1" points="72.5,263 72.4,263 72.4,263 72.4,263 72.4,263 273.8,338.4 311.7,130.4 72.5,262.9 	"/>
	<polygon class="st1" points="901.4,574 901.4,574 901.4,574 901.4,574 	"/>
	<polygon class="st1" points="776.3,502.6 776.3,502.6 776.3,502.6 738.7,601.8 901.4,573.9 	"/>
	<polygon class="st1" points="72.5,262.9 311.7,130.4 133.9,-0.3 99,-0.3 72.4,262.7 	"/>
	<polygon class="st1" points="901.4,574 901.4,574 901.5,574 901.4,573.9 738.7,601.8 738.7,601.8 820.1,698 901.4,574 	"/>
	<polygon class="st1" points="665.4,749.4 665.4,749.3 665.4,749.4 	"/>
	<polygon class="st1" points="785.8,758.8 785.8,758.8 785.8,758.8 	"/>
	<polygon class="st1" points="776.2,502.6 776.3,502.6 776.3,502.6 	"/>
	<polygon class="st1" points="785.9,758.8 785.8,758.8 785.8,758.9 	"/>
	<polygon class="st1" points="820.1,698.3 820,698.3 820,698.3 819.9,698.3 	"/>
	<polygon class="st1" points="554.6,704.1 554.6,704.1 554.6,703.9 	"/>
	<polygon class="st1" points="554.6,704.1 554.6,704.1 554.6,704.1 	"/>
	<polygon class="st1" points="554.6,703.9 554.6,704.1 554.8,704 	"/>
	<polygon class="st1" points="523.8,828.2 523.9,828.2 665.2,749.5 554.6,704.1 	"/>
	<polygon class="st1" points="565.1,150.7 513.3,-0.3 458.5,-0.3 389.9,78.7 	"/>
	<polygon class="st1" points="389.7,78.7 301.4,-0.3 291,-0.3 311.7,130.4 	"/>
	<polygon class="st1" points="907,774.5 906.8,774.5 907,774.6 	"/>
	<polygon class="st1" points="311.7,130.4 291,-0.3 134,-0.3 	"/>
	<polygon class="st1" points="906.8,774.5 820.1,698.4 786,758.8 	"/>
	<polygon class="st1" points="820.1,698.3 820.1,698.3 820,698.3 820.1,698.3 	"/>
	<polygon class="st1" points="820.1,698.4 820.1,698.3 820.1,698.3 	"/>
	<polygon class="st1" points="785.9,758.9 786,758.8 785.9,758.8 	"/>
	<polygon class="st1" points="665.5,749.4 665.5,749.4 665.4,749.4 	"/>
	<polygon class="st1" points="751.5,671.3 665.5,749.3 751.5,671.3 	"/>
	<polygon class="st1" points="665.5,749.3 665.5,749.4 785.7,758.8 751.5,671.3 	"/>
	<polygon class="st1" points="785.8,758.8 819.9,698.3 819.9,698.3 820,698.2 751.6,671.4 	"/>
	<polygon class="st1" points="1469.3,266.9 1469.3,266.9 1453.1,274.5 1453.1,274.5 	"/>
	<polygon class="st1" points="751.6,671.1 820.1,698.1 820.1,698.1 738.6,601.8 	"/>
	<polygon class="st1" points="1087.5,423.6 1087.5,423.6 1087.5,423.6 	"/>
	<polygon class="st1" points="683.6,662.7 554.8,704 665.3,749.3 	"/>
	<polygon class="st1" points="683.6,662.7 665.3,749.3 665.4,749.3 665.5,749.3 683.7,662.7 	"/>
	<polygon class="st1" points="683.6,662.6 683.6,662.6 683.6,662.7 683.7,662.7 	"/>
	<polygon class="st1" points="751.5,671.3 751.5,671.3 683.6,662.6 683.7,662.7 665.5,749.3 751.5,671.3 	"/>
	<polygon class="st1" points="665.3,749.5 665.4,749.4 665.3,749.4 	"/>
	<polygon class="st1" points="554.8,704 554.6,704.1 665.2,749.5 665.3,749.4 665.3,749.3 	"/>
	<polygon class="st1" points="665.3,749.4 665.4,749.4 665.4,749.3 665.3,749.3 	"/>
	<polygon class="st1" points="665.4,749.4 665.5,749.4 665.5,749.3 665.4,749.3 665.4,749.4 665.4,749.4 665.3,749.5 665.4,749.5 
		665.4,749.5 665.4,749.5 665.4,749.5 665.5,749.4 	"/>
	<polygon class="st1" points="665.4,749.5 665.5,749.5 665.5,749.4 	"/>
	<polygon class="st1" points="665.4,749.5 665.4,749.5 665.4,749.5 	"/>
	<polygon class="st1" points="785.7,758.8 665.5,749.4 665.5,749.4 665.5,749.5 785.7,758.9 	"/>
	<polygon class="st1" points="785.9,759 785.9,759 785.9,758.9 	"/>
	<polygon class="st1" points="785.8,758.9 785.9,759 785.8,758.9 	"/>
	<polygon class="st1" points="785.8,758.8 785.8,758.8 785.7,758.9 785.8,758.9 785.8,758.9 	"/>
	<polygon class="st1" points="665.4,749.5 665.4,749.5 665.4,749.5 665.4,749.5 665.4,749.5 	"/>
	<polygon class="st1" points="785.8,758.8 785.7,758.8 785.7,758.9 665.5,749.5 725.7,813.8 785.8,758.9 785.7,758.9 	"/>
	<polygon class="st1" points="1077.1,706.2 1076.9,706.1 1077,706.3 1077.1,706.2 	"/>
	<polygon class="st1" points="523.8,828.2 523.8,828.2 523.8,828.2 523.8,828.2 	"/>
	<polygon class="st1" points="554.6,704.1 554.6,704.1 523.8,828.2 523.8,828.2 	"/>
	<polygon class="st1" points="1431.8,678.3 1431.9,678.4 1431.9,678.3 1431.8,678.3 	"/>
	<polygon class="st1" points="665.3,749.5 665.3,749.4 665.2,749.5 665.4,749.5 665.4,749.5 	"/>
	<polygon class="st1" points="665.4,749.5 665.4,749.5 665.4,749.5 	"/>
	<polygon class="st1" points="523.8,828.2 523.8,828.3 523.8,828.3 524.1,828.2 523.9,828.2 	"/>
	<polygon class="st1" points="785.9,758.8 786,758.8 820.1,698.4 820.1,698.3 819.9,698.3 785.8,758.8 785.8,758.8 785.9,758.8 
		785.8,758.9 785.9,759 785.9,759 785.9,758.9 785.9,759 785.9,759 785.9,758.9 	"/>
	<polygon class="st1" points="1444.3,78.9 1444.3,78.9 1444.4,78.9 1444.4,78.9 1469.3,85.8 1469.3,64.1 1444.3,78.8 	"/>
	<polygon class="st1" points="1076.9,705.8 1076.9,705.9 1014.8,601.9 964.1,704.1 1076.9,705.9 	"/>
	<polygon class="st1" points="820.1,698.1 820.1,698 820.1,698.1 820.1,698.1 820.1,698.1 820,698.2 820,698.3 820,698.2 
		964.1,704.1 901.4,574 	"/>
	<polygon class="st1" points="901.4,574 901.4,574 964.1,704.1 901.6,574.1 	"/>
	<polygon class="st1" points="901.6,574.1 964.1,704.1 1014.7,601.9 	"/>
	<polygon class="st1" points="1077.1,706.2 1077.1,706.2 1077.1,706.2 	"/>
	<polygon class="st1" points="1282.9,597.5 1077.1,706.2 1296,789 	"/>
	<polygon class="st1" points="1087.5,423.7 1076.9,706 1077,706 1282.9,597.1 	"/>
	<polygon class="st1" points="906.8,774.5 786,758.8 785.9,758.9 786,759 907,774.6 	"/>
	<polygon class="st1" points="497.7,654 523.7,828.2 523.8,828.2 554.6,704.1 	"/>
	<polygon class="st1" points="907,774.6 786,759 868.7,886.8 907.1,774.5 907,774.5 	"/>
	<polygon class="st1" points="785.9,759 786,759 785.9,758.9 	"/>
	<path class="st1" d="M72.4,263.2l-73.3,34.4c0,40.1-0.1,80.1-0.1,120.2L214,480.6L72.4,263.2z"/>
	<polygon class="st1" points="907.1,774.5 907.1,774.5 907.1,774.5 907.1,774.5 	"/>
	<polygon class="st1" points="820.1,698.4 906.8,774.5 907,774.5 964.1,704.1 820.1,698.3 	"/>
	<polygon class="st1" points="1076.9,705.8 1087.5,423.8 1014.8,601.8 	"/>
	<polygon class="st1" points="1410.3,96.7 1410.4,96.8 1444.3,78.9 1444.3,78.9 1444.3,78.8 1407.7,-0.3 1399.3,-0.3 	"/>
	<polygon class="st1" points="728.1,369.7 728.1,369.7 728.1,369.8 728.1,369.8 	"/>
	<polygon class="st1" points="1431.9,678.2 1469.3,623.1 1469.3,518.8 	"/>
	<polygon class="st1" points="728.1,369.7 728.1,369.7 728.1,369.7 	"/>
	<polygon class="st1" points="728.1,369.7 728.1,369.7 728.1,369.7 728.1,369.7 	"/>
	<polygon class="st1" points="1410.3,96.7 1399.3,-0.3 1348.9,-0.3 1322.8,12.8 	"/>
	<polygon class="st1" points="728.1,369.8 901.5,455.4 728.1,369.7 728.1,369.7 	"/>
	<polygon class="st1" points="776.3,502.6 776.3,502.6 901.5,455.4 901.5,455.4 728.1,369.8 	"/>
	<polygon class="st1" points="1087.5,423.7 1087.5,423.6 1087.5,423.7 	"/>
	<polygon class="st1" points="1087.5,423.7 1087.5,423.8 1087.5,423.7 1087.5,423.7 	"/>
	<polygon class="st1" points="1087.5,423.7 1087.5,423.6 1087.5,423.6 1087.5,423.6 1087.5,423.6 	"/>
	<polygon class="st1" points="1087.4,423.6 1087.5,423.6 1087.5,423.6 1087.4,423.6 	"/>
	<polygon class="st1" points="884.8,173.6 851.1,78.9 785.3,-0.3 782.6,-0.3 	"/>
	<polygon class="st1" points="884.8,173.6 960.8,-0.3 920,-0.3 851.2,78.9 	"/>
	<polygon class="st1" points="1087.5,423.6 1087.5,423.6 1087.5,423.6 1087.5,423.6 	"/>
	<polygon class="st1" points="1087.5,423.6 1087.4,423.6 1087.4,423.6 	"/>
	<polygon class="st1" points="728.1,369.8 728.1,369.8 776.2,502.5 776.3,502.6 	"/>
	<polygon class="st1" points="1162.8,120 1221.5,78.9 1192.3,-0.3 1176.2,-0.3 	"/>
	<polygon class="st1" points="554.8,704 683.6,662.7 683.6,662.6 683.6,662.6 554.6,581.6 554.6,703.9 	"/>
	<polygon class="st1" points="738.6,601.8 669.3,516.1 683.7,662.5 	"/>
	<polygon class="st1" points="751.6,671.2 738.6,601.8 683.7,662.5 	"/>
	<polygon class="st1" points="497.7,653.9 554.6,581.6 431.2,463.2 497.7,654 497.8,653.9 	"/>
	<polygon class="st1" points="497.8,653.9 554.6,581.6 497.7,653.9 	"/>
	<polygon class="st1" points="554.6,704.1 554.6,703.9 554.6,581.6 497.8,653.9 	"/>
	<polygon class="st1" points="669.3,516.1 554.6,581.6 683.7,662.5 	"/>
	<polygon class="st1" points="776.2,502.6 776.2,502.6 776.3,502.6 	"/>
	<polygon class="st1" points="776.2,502.5 776.2,502.6 776.3,502.6 	"/>
	<polygon class="st1" points="776.3,502.6 776.2,502.5 776.2,502.5 776.3,502.6 	"/>
	<polygon class="st1" points="738.7,601.8 738.7,601.8 776.2,502.6 669.3,516.1 738.7,601.8 	"/>
	<path class="st1" d="M72.4,263L72.4,263l-41.1-5.3l1.3,4.2l-2.5-4.4l-30.9-4c0,14.7,0,29.3,0,44L72.4,263L72.4,263z"/>
	<path class="st1" d="M-0.8,203.7c0,16.6,0,33.2-0.1,49.8l30.9,4L-0.8,203.7z"/>
	<polygon class="st1" points="776.2,502.6 776.2,502.6 776.2,502.6 	"/>
	<polygon class="st1" points="523.8,828.2 523.8,828.2 523.9,828.2 	"/>
	<polygon class="st1" points="1453,1068.7 1453.1,1068.7 1453.1,1068.7 	"/>
	<polygon class="st1" points="1453,1068.7 1453,1068.7 1453.1,1068.7 1469.3,1035.8 1469.3,1035.7 	"/>
	<polygon class="st1" points="1162.8,120.1 1162.8,120.2 1162.9,120.1 	"/>
	<polygon class="st1" points="1469.3,962.3 1391.8,1015.1 1391.8,1015 1391.7,1015.1 1453,1068.7 1469.3,1035.7 	"/>
	<path class="st1" d="M346,1098.2l-113.4-75.7l53.7,194c2.7-0.3,5.5-0.6,8.2-0.9L346,1098.2z"/>
	<polygon class="st1" points="1469.3,962.3 1469.3,962.2 1391.8,1015 1391.8,1015.1 	"/>
	<polygon class="st1" points="1469.3,1058.6 1469.3,1035.8 1453.1,1068.7 	"/>
	<polygon class="st1" points="901.8,251.4 901.6,251.4 901.6,455.4 1087.4,423.6 	"/>
	<polygon class="st1" points="1440.4,151.8 1440.4,151.9 1440.4,151.8 1440.4,151.8 	"/>
	<polygon class="st1" points="1432,823 1431.8,823.1 1431.8,823.1 	"/>
	<path class="st1" d="M346,1098.2l22,109.8c6.9-0.7,13.9-1.4,20.8-2.2l-2.2-215L346,1098.2z"/>
	<polygon class="st1" points="72.5,263 72.5,262.9 72.4,263 	"/>
	<path class="st1" d="M472.3,1019.9l-85.8-29.1l2.2,215c11-1.1,22-2.3,33-3.4L472.3,1019.9z"/>
	<polygon class="st1" points="1453,1068.7 1453,1068.7 1453,1068.7 	"/>
	<polygon class="st1" points="1410.4,96.9 1410.5,96.9 1410.4,97 1440.3,151.7 1442,121.9 1444.3,78.9 	"/>
	<polygon class="st1" points="1469.3,864.5 1431.8,823.1 1469.3,864.5 	"/>
	<polygon class="st1" points="232.6,876 232.6,875.9 232.4,876 	"/>
	<polygon class="st1" points="5.5,793.8 5.6,793.8 5.5,793.7 	"/>
	<polygon class="st1" points="72.4,263.2 214,480.6 273.9,338.6 	"/>
	<path class="st1" d="M-1.5,797.7c0,3.8,0,7.6,0,11.4l7-15.5v0L-1.5,797.7z"/>
	<polygon class="st1" points="1469.3,85.8 1444.4,78.9 1444.4,78.9 1469.3,85.8 	"/>
	<polygon class="st1" points="1440.3,151.8 1410.4,97 1367.8,139.3 1440.3,151.8 	"/>
	<polygon class="st1" points="634.1,1076.4 728.1,938.4 586.3,938.4 	"/>
	<polygon class="st1" points="717.7,125.8 717.7,125.9 717.8,125.9 	"/>
	<path class="st1" d="M92.6,1013.5l8.9,200.7l123.1,8.6c18.4-1.9,36.8-3.8,55.2-5.7L92.6,1013.5z"/>
	<path class="st1" d="M101.5,1214.3L101.5,1214.3l-8.9-200.7l-94.4,80.4c-0.1,44.6-0.1,89.2-0.2,133.8l103.5-13.3L101.5,1214.3z"/>
	<polygon class="st1" points="1440.4,151.8 1440.4,151.9 1440.4,151.9 1440.4,151.8 	"/>
	<polygon class="st1" points="1440.4,151.8 1440.3,151.8 1440.3,151.8 1440.3,151.8 1367.8,139.3 1452.9,274 1440.4,151.9 
		1440.4,151.9 	"/>
	<polygon class="st1" points="1469.3,962.2 1469.3,864.5 1431.8,823.1 1391.8,1015 	"/>
	<polygon class="st1" points="101.5,1214.3 92.6,1013.5 101.4,1214.3 	"/>
	<polygon class="st1" points="634.1,1076.5 634.2,1076.4 634.1,1076.4 	"/>
	<polygon class="st1" points="1214.1,1031 1214.1,1031 1214,1031 	"/>
	<polygon class="st1" points="1469.3,1086.4 1469.3,1058.6 1453.1,1068.7 	"/>
	<polygon class="st1" points="1013.4,-0.3 960.8,-0.3 884.8,173.6 1033.2,163.5 	"/>
	<polygon class="st1" points="901.7,251.3 901.7,251.3 1033.2,163.5 884.8,173.6 901.5,251.1 	"/>
	<polygon class="st1" points="1162.8,120.2 1072.5,-0.3 1013.4,-0.3 1033.2,163.5 	"/>
	<polygon class="st1" points="795.5,178.9 901.3,251.1 901.4,251.1 884.8,173.6 717.8,125.9 	"/>
	<polygon class="st1" points="450.2,263 450.2,263 450.2,263 450.2,263 311.7,130.4 273.8,338.4 	"/>
	<polygon class="st1" points="1162.8,120.1 1162.7,120.1 1162.8,120 1176.2,-0.3 1072.5,-0.3 1162.8,120.2 	"/>
	<polygon class="st1" points="1176.2,-0.3 1176.2,-0.3 1162.8,120 	"/>
	<polygon class="st1" points="717.7,125.8 717.8,125.9 884.8,173.6 717.7,125.8 	"/>
	<polygon class="st1" points="717.7,125.8 717.7,125.8 717.7,125.8 	"/>
	<polygon class="st1" points="565.1,150.7 565.2,150.8 717.6,125.8 555.9,-0.3 513.3,-0.3 565.2,150.7 	"/>
	<polygon class="st1" points="1410.4,96.9 1410.4,96.8 1410.3,96.9 1410.3,96.7 1410.3,96.7 1410.3,96.9 	"/>
	<polygon class="st1" points="717.7,125.8 884.8,173.6 782.6,-0.3 771.6,-0.3 	"/>
	<polygon class="st1" points="450.3,263 450.2,262.9 450.3,262.9 565.1,150.8 311.7,130.4 450.2,263 	"/>
	<polygon class="st1" points="565.1,150.7 389.9,78.8 389.9,78.7 389.9,78.6 389.7,78.7 389.8,78.9 311.7,130.4 565.1,150.7 	"/>
	<path class="st1" d="M791.5,1163.9l21.2-87.5l-46.2,90.1C774.8,1165.6,783.2,1164.7,791.5,1163.9z"/>
	<polygon class="st1" points="1322.8,12.8 1221.5,78.9 1367.8,139.3 	"/>
	<path class="st1" d="M766.5,1166.5l46.2-90.1L766.5,1166.5C766.5,1166.5,766.5,1166.5,766.5,1166.5z"/>
	<polygon class="st1" points="1367.8,139.3 1221.5,78.9 1270.8,147.6 	"/>
	<polygon class="st1" points="345.8,1098 386.4,990.6 232.4,1022.3 	"/>
	<polygon class="st1" points="1410.3,96.9 1322.8,12.8 1367.8,139.3 	"/>
	<path class="st1" d="M472.3,1019.9l-50.5,182.4c24.9-2.6,49.8-5.2,74.7-7.8l1.2-1.4L472.3,1019.9z"/>
	<polygon class="st1" points="1410.3,96.7 1322.8,12.8 1410.3,96.9 	"/>
	<path class="st1" d="M647.7,1136.3l-13.7-59.8l-136.3,116.6v0l0,0l1.7,1.1c52.6-5.5,105.2-10.9,157.8-16.4L647.7,1136.3z"/>
	<polygon class="st1" points="386.5,990.8 472.3,1019.9 459.5,942.5 	"/>
	<path class="st1" d="M791.5,1163.9c11.5-1.2,23-2.4,34.6-3.6l-13.4-83.9L791.5,1163.9z"/>
	<path class="st1" d="M952.4,1027.9l-139.7,48.4l13.4,83.9c27.7-2.9,55.3-5.8,83-8.6L952.4,1027.9z"/>
	<polygon class="st1" points="497.7,1193.1 634.1,1076.5 497.7,1193.1 	"/>
	<polygon class="st1" points="1162.9,120.1 1270.8,147.6 1221.5,78.9 1221.5,78.9 1221.5,79 	"/>
	<polygon class="st1" points="497.7,1193.1 634.1,1076.5 472.3,1019.9 	"/>
	<path class="st1" d="M367.9,1207.9l-22-109.8l-51.5,117.4C319,1213,343.5,1210.5,367.9,1207.9z"/>
	<polygon class="st1" points="421.8,1202.3 472.3,1019.9 421.8,1202.3 	"/>
	<path class="st1" d="M92.6,1013.5l187.1,203.6c2.1-0.2,4.3-0.4,6.4-0.7l-53.7-194.1L92.6,1013.5z"/>
	<polygon class="st1" points="450.2,263 450.3,263 450.3,263 	"/>
	<polygon class="st1" points="450.3,263 554.6,386.9 624.8,289.8 	"/>
	<polygon class="st1" points="624.9,289.6 624.9,289.6 625,289.6 	"/>
	<polygon class="st1" points="565.2,150.7 565.1,150.7 565.1,150.7 	"/>
	<polygon class="st1" points="431.2,463.1 431.2,463.2 431.2,463.2 431.2,463.2 431.2,463.2 	"/>
	<polygon class="st1" points="901.5,251.3 901.5,251.2 901.5,251.3 	"/>
	<polygon class="st1" points="901.4,251.2 901.4,251.2 901.4,251.2 	"/>
	<polygon class="st1" points="684.2,185.1 625,289.6 625,289.6 	"/>
	<polygon class="st1" points="267.2,608.7 267.2,608.7 267.2,608.7 	"/>
	<polygon class="st1" points="5.5,793.6 5.5,793.6 5.5,793.6 	"/>
	<polygon class="st1" points="523.7,828.2 523.8,828.3 523.7,828.2 	"/>
	<polygon class="st1" points="523.8,828.3 523.8,828.3 523.8,828.3 	"/>
	<polygon class="st1" points="1453,274.4 1452.9,274 1367.8,139.3 	"/>
	<polygon class="st1" points="1367.8,139.3 1374.5,353.4 1453.1,274.4 1453.1,274.2 1452.9,274 1453,274.4 	"/>
	<polygon class="st1" points="5.5,793.6 5.5,793.6 5.5,793.6 	"/>
	<polygon class="st1" points="1185.1,242.4 1185.1,242.4 1185.1,242.4 	"/>
	<polygon class="st1" points="1336,513.1 1336,513 1336,513.1 	"/>
	<polygon class="st1" points="1179.9,345.9 1179.9,345.9 1180,346 	"/>
	<polygon class="st1" points="1453.1,274.5 1453.1,274.5 1453.1,274.5 1453.1,274.5 	"/>
	<polygon class="st1" points="1076.9,706.3 1077.1,706.4 1077,706.3 	"/>
	<polygon class="st1" points="1453.1,274.5 1453.1,274.5 1453.1,274.5 	"/>
	<polygon class="st1" points="901.5,251.4 901.6,251.4 901.6,251.4 	"/>
	<polygon class="st1" points="728.1,369.7 728.1,369.8 728.1,369.7 	"/>
	<polygon class="st1" points="1076.9,706 1077,706 1076.9,706 	"/>
	<polygon class="st1" points="1185,242.2 1185.1,242.3 1185.2,242.2 	"/>
	<polygon class="st1" points="1185.1,242.3 1185,242.4 1185.1,242.4 	"/>
	<polygon class="st1" points="523.8,828.3 523.8,828.3 523.8,828.3 523.8,828.3 	"/>
	<polygon class="st1" points="901.6,251.3 901.5,251.3 901.6,251.3 	"/>
	<polygon class="st1" points="1185.3,242.3 1185.1,242.4 1185.1,242.4 	"/>
	<polygon class="st1" points="1185.3,242.2 1185.3,242.3 1185.3,242.2 	"/>
	<polygon class="st1" points="1041.3,946.5 1041.3,946.5 1041.3,946.5 1041.3,946.5 	"/>
	<polygon class="st1" points="72.4,263 72.4,263 72.4,263 72.4,263 	"/>
	<polygon class="st1" points="952.4,1027.9 1041.3,946.5 1041.3,946.5 	"/>
	<polygon class="st1" points="1440.3,151.8 1440.3,151.7 1410.4,97 1410.4,97 	"/>
	<polygon class="st1" points="1410.4,97 1410.3,96.9 1410.4,97 	"/>
	<polygon class="st1" points="1296,880.2 1296,880.1 1296,880.2 	"/>
	<polygon class="st1" points="1431.8,823.1 1431.8,823 1431.8,823.1 	"/>
	<polygon class="st1" points="1440.3,151.8 1440.4,151.8 1440.3,151.7 1440.3,151.8 	"/>
	<polygon class="st1" points="1190,1098.5 1190,1098.5 1041.4,946.5 1041.4,946.6 	"/>
	<polygon class="st1" points="952.4,1028 952.4,1027.9 952.4,1027.9 	"/>
	<polygon class="st1" points="1041.3,946.5 1041.3,946.5 1041.3,946.5 1041.3,946.5 1041.3,946.4 1041.3,946.5 1171.5,841.1 
		1005.6,774.8 	"/>
	<polygon class="st1" points="1041.4,946.5 1041.4,946.5 1041.4,946.5 	"/>
	<polygon class="st1" points="1041.3,946.5 1041.3,946.5 1041.3,946.6 1041.3,946.6 1041.3,946.5 	"/>
	<polygon class="st1" points="72.4,263 72.3,263 72.4,263 72.4,263 	"/>
	<path class="st1" d="M72.1,262.3L-0.8,135.6c0,7.4,0,14.8,0,22.1l32,99.9l41.1,5.3L72.1,262.3z"/>
	<polygon class="st1" points="1041.3,946.5 1041.3,946.5 1041.4,946.6 1041.4,946.5 1041.4,946.5 	"/>
	<polygon class="st1" points="725.7,814 725.6,814 725.6,814.1 	"/>
	<polygon class="st1" points="1041.3,946.5 1041.3,946.5 1041.3,946.5 1041.3,946.5 	"/>
	<polygon class="st1" points="868.7,887 868.7,887 868.7,886.9 	"/>
	<polygon class="st1" points="868.6,886.9 868.7,886.9 868.6,886.8 	"/>
	<polygon class="st1" points="1041.4,946.5 1041.3,946.5 1041.3,946.5 1041.3,946.5 	"/>
	<polygon class="st1" points="1041.3,946.5 1041.4,946.5 1041.4,946.5 1041.3,946.5 	"/>
	<polygon class="st1" points="1440.4,151.8 1440.4,151.8 1440.4,151.8 1440.3,151.8 	"/>
	<polygon class="st1" points="1440.3,151.8 1440.4,151.8 1440.3,151.8 	"/>
	<polygon class="st1" points="1469.3,266.9 1453.1,274.5 1469.3,364.5 	"/>
	<polygon class="st1" points="72.4,262.7 72.4,262.7 72.4,263 	"/>
	<polygon class="st1" points="1041.3,946.5 1041.3,946.5 1041.3,946.5 	"/>
	<polygon class="st1" points="952.4,1027.9 952.4,1027.9 952.4,1028 952.4,1028 	"/>
	<polygon class="st1" points="785.9,759 785.9,759 785.9,759 	"/>
	<polygon class="st1" points="1270.9,147.7 1162.8,120.2 1185.2,242.1 	"/>
	<polygon class="st1" points="1185.2,242.1 1367.8,139.3 1270.9,147.7 	"/>
	<path class="st1" d="M952.4,1027.9L952.4,1027.9l-43.2,123.7c30.7-3.2,61.4-6.4,92.1-9.6L952.4,1027.9L952.4,1027.9z"/>
	<polygon class="st1" points="952.4,1027.9 1001.2,1142.1 1001.2,1142.1 952.4,1028 	"/>
	<polygon class="st1" points="1162.8,120.2 1033.2,163.5 1185,242.2 	"/>
	<polygon class="st1" points="1102.4,293.9 1102.4,294.1 1185,242.4 1033.2,163.5 1102.3,293.9 	"/>
	<polygon class="st1" points="952.4,1027.9 952.4,1027.9 952.4,1027.9 	"/>
	<polygon class="st1" points="1185.1,242.4 1179.7,345.8 1179.9,345.9 1179.9,345.9 1180,346 1180,346 1185.3,242.5 1185.1,242.4 	
		"/>
	<polygon class="st1" points="1180,346.2 1238,484.2 1374.4,353.7 1374.4,353.6 1374.5,353.5 1374,353.5 1374.3,353.7 	"/>
	<polygon class="st1" points="1180,346.2 1374.3,353.7 1374,353.5 1180,346 	"/>
	<polygon class="st1" points="1185.3,242.3 1185.1,242.4 1185.3,242.5 1185.3,242.2 	"/>
	<polygon class="st1" points="1374.5,353.6 1469.3,437.9 1469.3,364.6 1453.1,274.5 1374.5,353.5 1374.6,353.5 	"/>
	<polygon class="st1" points="1180,346 1180,346 1374,353.5 1185.3,242.5 1180,346 	"/>
	<polygon class="st1" points="1185.3,242.5 1185.3,242.5 1185.1,242.4 	"/>
	<polygon class="st1" points="1102.3,293.9 1033.2,163.5 1102.2,293.9 	"/>
	<polygon class="st1" points="1374.5,353.6 1374.6,353.5 1374.5,353.5 1374.4,353.6 	"/>
	<polygon class="st1" points="634.1,1076.4 634,1076.4 634.1,1076.5 634.1,1076.5 	"/>
	<polygon class="st1" points="901.3,251.1 795.5,178.9 901.3,251.1 	"/>
	<polygon class="st1" points="684.2,185.1 625,289.6 901.3,251.1 795.5,178.9 717.7,125.9 	"/>
	<polygon class="st1" points="1033.2,163.5 901.7,251.3 1102.2,293.9 	"/>
	<polygon class="st1" points="472.4,1019.8 634,1076.4 586.3,938.4 	"/>
	<polygon class="st1" points="624.9,289.6 565.2,150.8 450.4,262.9 624.9,289.6 	"/>
	<path class="st1" d="M634.1,1076.5l13.6,59.8l9.5,41.5c36.4-3.8,72.8-7.6,109.2-11.4l46.2-90.1H634.2L634.1,1076.5z"/>
	<polygon class="st1" points="586.3,938.4 634,1076.4 634.1,1076.4 	"/>
	<polygon class="st1" points="901.4,251.2 901.4,251.2 901.3,251.1 901.3,251.1 	"/>
	<polygon class="st1" points="728.2,938.3 812.7,1076.4 868.7,887.1 	"/>
	<polygon class="st1" points="901.6,251.3 901.6,251.3 901.7,251.3 901.7,251.3 901.6,251.3 	"/>
	<polygon class="st1" points="901.5,251.1 901.4,251.1 901.4,251.2 	"/>
	<polygon class="st1" points="868.8,887.1 812.7,1076.4 952.4,1027.9 	"/>
	<polygon class="st1" points="634.2,1076.4 812.7,1076.4 728.1,938.4 	"/>
	<polygon class="st1" points="901.5,251.3 901.6,251.3 901.7,251.3 901.5,251.1 901.5,251.3 	"/>
	<polygon class="st1" points="901.5,251.3 901.5,251.3 901.5,251.3 901.5,251.3 901.5,251.1 901.5,251.1 901.5,251.2 	"/>
	<polygon class="st1" points="624.9,289.6 624.9,289.6 625,289.6 625,289.6 684.2,185.1 717.7,125.9 565.2,150.8 624.9,289.6 	"/>
	<polygon class="st1" points="907.1,774.5 907.1,774.5 1005.5,774.5 1005.6,774.5 	"/>
	<polygon class="st1" points="1374.4,353.7 1374.4,353.7 1374.4,353.7 1336,513 1469.3,458.3 1469.3,437.9 1374.5,353.6 	"/>
	<polygon class="st1" points="964.1,704.1 907.1,774.5 1005.6,774.5 1005.5,774.5 1005.6,774.5 1005.6,774.4 1005.6,774.5 	"/>
	<polygon class="st1" points="907.1,774.5 868.7,886.8 868.7,886.8 868.9,886.7 907.1,774.5 	"/>
	<polygon class="st1" points="964.1,704.1 1005.6,774.4 1058.1,724 1076.8,706 	"/>
	<polygon class="st1" points="1076.8,706 1058.1,724 1076.9,706 	"/>
	<polygon class="st1" points="868.7,886.9 868.8,886.8 868.9,886.7 868.7,886.8 	"/>
	<polygon class="st1" points="1005.6,774.5 1005.6,774.4 964.1,704.1 	"/>
	<polygon class="st1" points="785.9,759 785.9,759 785.9,759 	"/>
	<polygon class="st1" points="1076.9,706.3 1077,706.3 1076.9,706.1 1077.1,706.2 1077,706 1076.9,706 1076.9,706 1076.9,705.9 
		1076.8,706 1076.9,706 1058.1,724 1005.6,774.5 1171.3,840.8 1077.1,706.4 	"/>
	<path class="st1" d="M1190.1,1098.6L1190.1,1098.6l-0.1,0l3.4,23.5c7.6-0.8,15.3-1.6,22.9-2.4l-2.3-88.4L1190.1,1098.6z"/>
	<polygon class="st1" points="868.8,887 868.8,886.8 868.7,886.9 	"/>
	<polygon class="st1" points="785.9,759 785.9,759 785.9,759 785.9,759 785.9,759 	"/>
	<polygon class="st1" points="868.7,886.8 868.6,886.8 868.7,886.9 868.7,886.8 	"/>
	<polygon class="st1" points="868.7,886.9 868.7,886.9 868.7,887 1041.2,946.4 1005.5,774.5 868.8,886.8 868.8,887 	"/>
	<polygon class="st1" points="1193.4,1122.1 1193.4,1122.1 1190,1098.6 	"/>
	<polygon class="st1" points="868.9,886.7 1005.5,774.5 907.1,774.5 	"/>
	<polygon class="st1" points="1431.6,678.5 1431.8,678.6 1431.7,678.4 	"/>
	<polygon class="st1" points="1296,788.9 1296.3,789 1431.8,678.6 1431.6,678.5 	"/>
	<polygon class="st1" points="1282.9,597.4 1431.6,678.5 1431.7,678.4 1336,513.1 	"/>
	<polygon class="st1" points="1296,789 1296,789 1296,789 1296,788.9 1296.3,789 1296,788.9 1431.6,678.5 1282.9,597.4 	"/>
	<polygon class="st1" points="1431.8,678.4 1431.8,678.3 1469.3,518.7 1469.3,458.3 1336,513.1 	"/>
	<path class="st1" d="M952.4,1028l48.8,114.1c1.5-0.2,2.9-0.3,4.4-0.5l63-39L952.4,1028z"/>
	<path class="st1" d="M1005.6,1141.6c31.6-3.3,63.2-6.6,94.8-9.9l-31.8-29.1L1005.6,1141.6z"/>
	<path class="st1" d="M1068.6,1102.7l31.8,29.1c29.1-3,58.2-6,87.2-9.1l2.3-24.1L1068.6,1102.7z"/>
	<polygon class="st1" points="1296,880.2 1296,880.1 1296,880.1 	"/>
	<polygon class="st1" points="1295.8,789.1 1171.5,841.1 1295.8,789.1 	"/>
	<polygon class="st1" points="1077.3,706.4 1171.4,840.8 1171.3,840.8 1171.5,841.1 1295.8,789.1 	"/>
	<polygon class="st1" points="1296,789.2 1295.8,789.1 1171.5,841.1 1296,880.1 	"/>
	<polygon class="st1" points="1296,789.2 1296,880.1 1296.2,880 1431.8,823 1296.3,789 1296,789.2 	"/>
	<path class="st1" d="M1190,1098.6l-2.3,24.1c1.9-0.2,3.8-0.4,5.7-0.6L1190,1098.6L1190,1098.6z"/>
	<path class="st1" d="M-1.5,788.8c0,3,0,5.9,0,8.9l7-4.1L-1.5,788.8z"/>
	<polygon class="st1" points="1077.3,706.4 1077.1,706.4 1171.3,840.8 1171.4,840.8 	"/>
	<polygon class="st1" points="1185.3,242.5 1374.5,353.4 1367.8,139.3 1185.3,242.2 	"/>
	<polygon class="st1" points="232.4,876 232.4,1022.3 386.4,990.6 	"/>
	<polygon class="st1" points="725.6,814 626.4,821 523.8,828.3 523.8,828.3 523.8,828.3 586.3,938.4 725.6,814.1 	"/>
	<polygon class="st1" points="725.6,814.1 586.3,938.4 728.1,938.4 728.1,938.1 728,938.2 	"/>
	<polygon class="st1" points="523.8,828.3 523.8,828.3 523.8,828.3 523.8,828.3 523.8,828.3 523.8,828.4 523.8,828.3 	"/>
	<polygon class="st1" points="725.5,813.9 725.6,814 725.7,814 728.1,938.1 868.5,887 827.9,866.2 725.7,813.9 	"/>
	<polygon class="st1" points="725.7,813.9 827.9,866.2 725.7,813.8 	"/>
	<polygon class="st1" points="523.8,828.3 523.8,828.3 523.8,828.3 523.8,828.3 	"/>
	<polygon class="st1" points="725.6,814.1 728,938.2 728.1,938.1 725.7,814 	"/>
	<polygon class="st1" points="395.1,754.3 395.2,754.3 395.1,754.2 	"/>
	<polygon class="st1" points="395,754.3 395.1,754.3 395,754.2 	"/>
	<polygon class="st1" points="523.8,828.3 523.7,828.2 523.7,828.2 497.7,654 395.1,754.2 498,813.5 523.8,828.3 	"/>
	<polygon class="st1" points="498,813.5 523.8,828.3 523.8,828.3 	"/>
	<polygon class="st1" points="868.7,887 868.7,886.9 868.7,886.9 868.6,886.9 868.6,886.8 785.9,759 785.9,759 785.9,759 
		725.7,813.8 827.9,866.2 868.8,887.1 868.7,887 	"/>
	<polygon class="st1" points="386.4,990.6 386.4,990.6 386.4,990.6 	"/>
	<polygon class="st1" points="1190,1098.5 1041.4,946.6 1041.3,946.6 1068.6,1102.7 1190,1098.6 	"/>
	<polygon class="st1" points="1190,1098.6 1068.6,1102.7 1190,1098.6 1190,1098.6 	"/>
	<path class="st1" d="M-1.7,976.5c0,18.4,0,36.7-0.1,55.1l54.5-19.4L-1.7,976.5z"/>
	<polygon class="st1" points="1190,1098.6 1190,1098.6 1190,1098.6 	"/>
	<polygon class="st1" points="1041.3,946.6 1041.3,946.5 952.4,1027.9 952.4,1028 1068.6,1102.7 1041.3,946.6 	"/>
	<polygon class="st1" points="386.4,990.6 386.4,990.6 386.4,990.6 459.5,942.5 232.4,876 	"/>
	<polygon class="st1" points="1190,1098.5 1190,1098.5 1190.1,1098.6 1190.1,1098.6 	"/>
	<polygon class="st1" points="92.6,1013.5 232.4,1022.3 232.4,876 	"/>
	<polygon class="st1" points="1190,1098.6 1190,1098.6 1190,1098.6 	"/>
	<polygon class="st1" points="952.4,1027.9 952.4,1027.9 952.4,1027.9 952.4,1027.9 952.4,1027.9 952.4,1027.9 952.4,1027.9 	"/>
	<polygon class="st1" points="52.8,1012.2 21.6,1038.7 92.6,1013.5 39.5,978.7 	"/>
	<polygon class="st1" points="952.4,1028 1068.6,1102.7 952.4,1028 	"/>
	<polygon class="st1" points="952.4,1027.9 1041.3,946.5 1041.3,946.5 868.8,887.1 952.4,1027.9 952.4,1027.9 	"/>
	<polygon class="st1" points="952.4,1027.9 952.4,1027.9 952.4,1027.9 	"/>
	<polygon class="st1" points="450.2,263 450.2,263 450.2,263 	"/>
	<polygon class="st1" points="267.3,608.6 273.9,338.6 214,480.6 267.2,608.7 	"/>
	<polygon class="st1" points="267.3,608.9 267.2,608.7 267.2,608.7 267.2,608.7 214,480.6 267.2,608.8 	"/>
	<polygon class="st1" points="267.3,608.6 273.9,338.6 267.3,608.6 	"/>
	<polygon class="st1" points="267.2,608.8 214,480.6 50.4,552.3 	"/>
	<polygon class="st1" points="431.1,463.2 273.9,338.6 267.3,608.6 	"/>
	<polygon class="st1" points="50.3,552.3 50.3,552.3 50.3,552.3 	"/>
	<polygon class="st1" points="523.8,828.4 459.5,942.5 586.3,938.4 	"/>
	<polygon class="st1" points="50.3,552.3 50.3,552.3 50.4,552.3 	"/>
	<polygon class="st1" points="50.3,552.2 50.3,552.3 50.3,552.3 50.3,552.3 	"/>
	<polygon class="st1" points="450.4,262.9 450.3,262.9 450.3,263 450.3,263 	"/>
	<polygon class="st1" points="472.3,1019.8 472.4,1019.8 586.3,938.4 	"/>
	<polygon class="st1" points="431.2,463.2 450.2,263 450.2,263 450.2,263 431.2,463.1 	"/>
	<polygon class="st1" points="431.2,463.1 450.2,263 273.8,338.4 431.1,463.1 431.2,463.1 	"/>
	<polygon class="st1" points="267.5,608.8 497.7,653.8 497.7,653.8 431.2,463.2 431.2,463.2 431.2,463.2 431.2,463.2 431.2,463.2 
		431.2,463.2 431.1,463.1 431.1,463.2 431.2,463.3 	"/>
	<polygon class="st1" points="267.3,608.7 267.5,608.8 431.2,463.3 431.1,463.2 267.3,608.6 	"/>
	<polygon class="st1" points="586.3,938.4 459.5,942.5 472.3,1019.9 472.4,1019.8 472.3,1019.8 	"/>
	<rect x="5.5" y="793.6" transform="matrix(0.7071 -0.7071 0.7071 0.7071 -559.5618 236.3285)" class="st1" width="0" height="0"/>
	<polygon class="st1" points="5.5,793.6 5.5,793.7 5.6,793.8 5.7,793.7 	"/>
	<polygon class="st1" points="5.7,793.7 5.6,793.8 92.6,1013.5 232.4,876 5.7,793.7 	"/>
	<polygon class="st1" points="5.5,793.6 5.5,793.6 5.5,793.6 5.5,793.6 	"/>
	<polygon class="st1" points="5.5,793.6 5.5,793.7 5.5,793.6 	"/>
	<polygon class="st1" points="395.1,754.3 395,754.3 459.5,942.5 395.2,754.3 	"/>
	<polygon class="st1" points="232.6,875.9 232.6,876 232.4,876 232.4,876 459.5,942.5 395,754.3 	"/>
	<polygon class="st1" points="232.4,876 232.4,876 232.4,876 	"/>
	<polygon class="st1" points="5.5,793.6 5.5,793.6 5.5,793.6 	"/>
	<path class="st1" d="M5.5,793.6L5.5,793.6l44.8-241.2l-51.6,77.9C-1.4,683.1-1.4,736-1.5,788.8L5.5,793.6L5.5,793.6z"/>
	<polygon class="st1" points="523.8,828.3 459.5,942.5 523.8,828.4 	"/>
	<polygon class="st1" points="50.3,552.3 50.3,552.4 50.4,552.3 	"/>
	<rect x="5.5" y="793.6" class="st1" width="0" height="0"/>
	<polygon class="st1" points="232.4,876 232.6,875.9 232.6,875.9 	"/>
	<polygon class="st1" points="498,813.5 395.2,754.3 459.5,942.5 523.8,828.3 	"/>
	<polygon class="st1" points="1214,1031.2 1214.1,1031 1214,1031 1213.9,1031 	"/>
	<polygon class="st1" points="728,369.6 728,369.6 728,369.6 	"/>
	<polygon class="st1" points="728.1,369.6 728.1,369.5 728,369.6 	"/>
	<polygon class="st1" points="901.5,251.3 901.5,251.2 901.4,251.2 901.4,251.3 901.4,251.2 901.2,251.3 	"/>
	<polygon class="st1" points="901.5,455.4 901.5,455.4 901.5,251.3 728.1,369.7 	"/>
	<polygon class="st1" points="901.4,251.2 901.4,251.2 901.4,251.2 901.4,251.3 	"/>
	<polygon class="st1" points="624.9,289.8 625,289.7 624.9,289.7 624.9,289.7 	"/>
	<polygon class="st1" points="625,289.7 625,289.7 625,289.7 	"/>
	<path class="st1" d="M-1.2,550.5c0,26.6-0.1,53.2-0.1,79.7l51.6-77.9L-1.2,550.5z"/>
	<polygon class="st1" points="901.6,251.4 901.6,251.3 901.5,251.3 901.5,251.3 901.5,251.4 	"/>
	<polygon class="st1" points="901.9,251.5 901.7,251.3 901.6,251.3 901.8,251.4 	"/>
	<polygon class="st1" points="1296,880.1 1296,880.2 1296,880.2 1214.1,1031 1391.5,1015.1 1391.5,1015.1 1391.6,1015.1 
		1391.6,1015.1 1296,880.1 	"/>
	<polygon class="st1" points="1087.5,423.6 1087.5,423.6 1087.5,423.6 1087.5,423.6 1087.5,423.6 1087.5,423.6 1087.5,423.6 
		1087.5,423.7 1087.5,423.7 1102.4,294.1 1102.3,294.1 1102.3,294.1 1102.3,294.1 901.9,251.5 1087.5,423.6 	"/>
	<polygon class="st1" points="901.6,251.3 901.6,251.3 901.6,251.4 	"/>
	<polygon class="st1" points="1296,789 1296,789.2 1296,789.2 1296,789 	"/>
	<polygon class="st1" points="901.6,251.4 901.8,251.4 901.6,251.3 901.6,251.4 	"/>
	<polygon class="st1" points="901.6,455.4 901.6,251.4 901.5,251.4 901.5,251.3 901.5,251.3 901.5,455.4 	"/>
	<polygon class="st1" points="1431.8,823.1 1469.3,864.5 1469.3,809.9 1432,823 	"/>
	<polygon class="st1" points="624.9,289.8 625,289.8 625,289.7 	"/>
	<polygon class="st1" points="1431.8,678.5 1431.8,678.6 1431.8,823 1431.8,823.1 1432,823 1469.3,809.9 1469.3,687.9 1431.9,678.4 
			"/>
	<polygon class="st1" points="624.9,289.7 624.9,289.7 624.9,289.7 	"/>
	<polygon class="st1" points="625,289.7 625,289.7 625,289.8 625.1,289.8 	"/>
	<polygon class="st1" points="1431.9,678.2 1431.9,678.3 1469.3,687.9 1469.3,623.1 	"/>
	<polygon class="st1" points="625,289.7 625,289.7 625,289.6 624.9,289.6 624.9,289.7 	"/>
	<polygon class="st1" points="1296,880.1 1391.6,1015.1 1431.8,823.1 1296.2,880 	"/>
	<polygon class="st1" points="625,289.7 625,289.6 625,289.6 625,289.7 	"/>
	<polygon class="st1" points="728.1,369.5 901.2,251.3 625.1,289.8 	"/>
	<polygon class="st1" points="624.9,289.7 624.9,289.7 624.9,289.8 624.9,289.8 	"/>
	<polygon class="st1" points="1296,789 1296,789 1296,789 1296,789 	"/>
	<polygon class="st1" points="1295.8,789.1 1296,789.2 1296,789 	"/>
	<polygon class="st1" points="624.9,289.8 624.9,289.8 625,289.7 	"/>
	<polygon class="st1" points="1296,789 1295.8,789.1 1295.8,789.1 1296,789 	"/>
	<polygon class="st1" points="624.9,289.8 624.9,289.8 624.9,289.8 	"/>
	<polygon class="st1" points="1180,346.2 1179.9,346 1179.7,346.2 	"/>
	<polygon class="st1" points="1335.8,513 1238,484.2 1283,597 	"/>
	<polygon class="st1" points="1444.4,78.9 1442,121.9 1440.4,151.8 1469.3,147.1 1469.3,85.8 	"/>
	<polygon class="st1" points="1374.4,353.7 1374.4,353.7 1336,513 	"/>
	<polygon class="st1" points="1335.8,513 1336,513.1 1336,513 1336,513 1336,513 1374.4,353.7 1238,484.2 1336.1,512.7 	"/>
	<polygon class="st1" points="1469.3,266.9 1469.3,258.8 1453.1,274.5 	"/>
	<polygon class="st1" points="1453.1,274.2 1453.2,274.3 1453.1,274.4 1453.1,274.5 1453.1,274.5 1469.3,258.8 1469.3,147.3 
		1440.5,152 	"/>
	<polygon class="st1" points="1102.4,294.1 1102.4,294.1 1102.4,294.1 	"/>
	<polygon class="st1" points="1283,597 1238,484.2 1087.5,423.7 	"/>
	<polygon class="st1" points="1296,789 1296,789 1296,789 1296,789 	"/>
	<polygon class="st1" points="1431.8,823.1 1431.8,823 1431.8,823 	"/>
	<polygon class="st1" points="1431.8,823 1431.8,823 1431.8,678.6 1296.3,789 	"/>
	<polygon class="st1" points="1431.7,678.4 1431.8,678.6 1431.8,678.5 1431.8,678.4 	"/>
	<polygon class="st1" points="1336,513 1336,513 1336,513 	"/>
	<polygon class="st1" points="1336,513.1 1336,513 1336,513 	"/>
	<polygon class="st1" points="1296,789 1296,789 1296,789 1296,789 	"/>
	<polygon class="st1" points="1431.8,823.1 1431.8,823.1 1431.8,823 1431.8,823.1 	"/>
	<polygon class="st1" points="1179.9,346 1180,346 1180,346 1179.9,345.9 1179.8,346 	"/>
	<polygon class="st1" points="1179.6,346.2 1179.7,346.2 1179.9,346 1179.8,346 1179.6,346.1 	"/>
	<path class="st1" d="M50.4,552.1l0,0.2l0,0L214,480.6L-1.1,417.8c0,30-0.1,60-0.1,90l51.5,44.4L50.4,552.1z"/>
	<polygon class="st1" points="1179.8,346 1179.9,345.9 1179.7,345.8 1179.6,345.8 	"/>
	<path class="st1" d="M50.3,552.2l-51.5-44.4c0,14.2,0,28.4,0,42.7L50.3,552.2L50.3,552.2z"/>
	<polygon class="st1" points="1102.4,294.1 1102.3,293.9 1102.2,293.9 1102.3,294.1 1102.3,294.1 	"/>
	<polygon class="st1" points="1102.4,294.1 1102.4,294.1 1102.4,294.1 	"/>
	<polygon class="st1" points="1431.8,823.1 1431.8,823.1 1431.8,823.1 	"/>
	<polygon class="st1" points="1179.7,345.8 1185.1,242.4 1102.4,294.1 	"/>
	<polygon class="st1" points="1179.6,345.8 1102.4,294.1 1087.5,423.7 1179.6,346.1 	"/>
	<polygon class="st1" points="1179.8,346 1179.6,345.8 1179.6,346.1 	"/>
	<polygon class="st1" points="1179.6,346.2 1179.6,346.1 1087.5,423.7 1179.7,346.2 	"/>
	<polygon class="st1" points="1180,346.2 1180,346.2 1180,346 1179.9,346 	"/>
	<polygon class="st1" points="1179.7,346.2 1087.5,423.7 1238,484.2 1180,346.2 	"/>
	<polygon class="st1" points="1431.8,678.3 1431.8,678.4 1431.8,678.5 1431.8,678.3 	"/>
	<polygon class="st1" points="1238,484.2 1180,346.2 1180,346.2 	"/>
	<polygon class="st1" points="624.8,289.8 624.9,289.8 624.9,289.7 	"/>
	<polygon class="st1" points="5.7,793.7 232.4,876 213.9,662.9 5.7,793.7 	"/>
	<polygon class="st1" points="267.3,608.9 267.3,609 267.3,609 267.3,608.9 	"/>
	<polygon class="st1" points="5.5,793.6 5.7,793.7 5.5,793.6 	"/>
	<polygon class="st1" points="213.9,662.9 213.9,662.9 232.4,876 232.4,876 232.6,875.9 	"/>
	<polygon class="st1" points="267.3,608.9 267.3,608.9 267.3,608.9 267.3,608.7 267.2,608.7 267.3,608.9 267.2,608.9 267.3,609 
		267.3,609 267.3,609 267.3,609 	"/>
	<polygon class="st1" points="267.3,609 267.2,608.9 213.9,662.6 213.9,662.6 395,754.2 267.3,609 267.3,609 	"/>
	<polygon class="st1" points="267.3,609 267.3,609 267.3,609 	"/>
	<polygon class="st1" points="213.9,662.7 214,662.8 213.9,662.9 232.6,875.9 395,754.2 213.9,662.6 	"/>
	<polygon class="st1" points="213.9,662.6 213.9,662.6 213.9,662.6 	"/>
	<polygon class="st1" points="1041.4,946.5 1041.4,946.5 1190,1098.5 1213.9,1031 1214,1031 1097.3,973.9 	"/>
	<polygon class="st1" points="213.9,662.7 213.9,662.7 213.9,662.6 213.9,662.6 213.9,662.6 	"/>
	<polygon class="st1" points="50.4,552.3 5.5,793.6 213.8,662.6 	"/>
	<polygon class="st1" points="213.8,662.6 5.5,793.6 5.5,793.6 5.7,793.7 213.9,662.9 213.9,662.7 	"/>
	<polygon class="st1" points="1077,706.3 1077.1,706.4 1077.3,706.4 1077.1,706.2 	"/>
	<polygon class="st1" points="267.1,608.9 267.2,608.9 267.2,608.9 267.2,608.8 50.4,552.3 213.9,662.6 	"/>
	<polygon class="st1" points="523.8,828.3 523.8,828.3 523.8,828.3 523.8,828.3 	"/>
	<polygon class="st1" points="523.8,828.2 523.8,828.2 523.8,828.2 523.7,828.2 523.8,828.3 523.8,828.3 523.8,828.3 	"/>
	<polygon class="st1" points="523.8,828.3 523.8,828.3 523.8,828.3 	"/>
	<polygon class="st1" points="523.8,828.3 523.8,828.3 626.4,821 524.1,828.2 	"/>
	<polygon class="st1" points="523.8,828.3 523.8,828.3 523.8,828.3 523.8,828.3 	"/>
	<polygon class="st1" points="725.7,813.9 725.7,813.8 725.6,813.8 	"/>
	<polygon class="st1" points="725.6,813.8 665.4,749.5 665.4,749.5 665.4,749.5 524.1,828.2 626.4,821 725.5,813.9 725.5,813.8 	"/>
	<polygon class="st1" points="725.5,813.8 725.5,813.9 725.7,813.9 725.6,813.8 	"/>
	<path class="st1" d="M1391.5,1015.1l-26,89.1c9.4-1,18.8-2,28.2-2.9L1391.5,1015.1L1391.5,1015.1z"/>
	<polygon class="st1" points="267.4,608.9 267.3,608.9 395.1,754.2 497.6,653.9 	"/>
	<path class="st1" d="M1391.6,1015.1l2.2,86.1c16.2-1.7,32.3-3.4,48.5-5l10.6-27.5L1391.6,1015.1z"/>
	<polygon class="st1" points="523.8,828.3 523.8,828.3 523.8,828.3 	"/>
	<polygon class="st1" points="497.7,654 497.7,654 497.7,654 	"/>
	<path class="st1" d="M1442.5,1096.2c8.9-0.9,17.9-1.9,26.8-2.8v-7l-16.2-17.6L1442.5,1096.2z"/>
	<path class="st1" d="M1214.1,1031L1214.1,1031L1214.1,1031L1214.1,1031L1214.1,1031L1214.1,1031L1214.1,1031l0,0.1l41.7,84.4
		c36.6-3.8,73.2-7.6,109.8-11.4l26-89.1L1214.1,1031z"/>
	<polygon class="st1" points="267.3,609 267.3,608.9 267.3,608.9 	"/>
	<polygon class="st1" points="523.7,828.2 523.8,828.3 523.7,828.2 	"/>
	<polygon class="st1" points="497.7,653.8 497.7,653.8 497.7,653.8 	"/>
	<polygon class="st1" points="1296,880.2 1171.5,841.1 1214.1,1031 1214.1,1031 	"/>
	<polygon class="st1" points="431.2,463.1 554.6,386.9 450.2,263 431.2,463.2 431.2,463.2 431.3,463.1 	"/>
	<polygon class="st1" points="431.3,463.1 554.6,386.9 431.2,463.1 	"/>
	<polygon class="st1" points="669.3,516.1 554.6,386.9 554.6,581.6 	"/>
	<polygon class="st1" points="554.6,581.6 554.6,386.9 431.3,463.1 	"/>
	<polygon class="st1" points="497.7,654 497.7,653.8 497.7,653.8 497.7,653.8 497.6,653.9 	"/>
	<polygon class="st1" points="1296,789 1077.1,706.2 1077.1,706.2 1077.3,706.4 1295.8,789.1 1296,789 	"/>
	<polygon class="st1" points="624.9,289.7 624.9,289.6 624.9,289.6 624.9,289.7 	"/>
	<polygon class="st1" points="728.1,369.8 728.1,369.7 728.1,369.7 728.1,369.7 728.1,369.7 728.1,369.6 554.6,386.9 776.2,502.5 	
		"/>
	<polygon class="st1" points="776.2,502.6 776.2,502.5 554.6,386.9 669.3,516 	"/>
	<polygon class="st1" points="625,289.8 624.9,289.8 624.9,289.8 624.8,289.8 554.6,386.9 728,369.6 	"/>
	<polygon class="st1" points="1214.1,1031 1214.1,1031 1391.5,1015.1 1391.5,1015.1 	"/>
	<polygon class="st1" points="624.9,289.7 624.9,289.7 624.9,289.6 624.8,289.8 624.8,289.8 	"/>
	<polygon class="st1" points="776.2,502.5 554.6,386.9 776.2,502.5 	"/>
	<path class="st1" d="M50.3,552.3L50.3,552.3l-51.6,77.9c0,0,0,0.1,0,0.1L50.3,552.3L50.3,552.3z"/>
	<polygon class="st1" points="267.4,608.9 267.5,608.8 267.3,608.7 267.3,608.9 	"/>
	<path class="st1" d="M1214,1031.3l2.3,88.4c13.1-1.4,26.3-2.7,39.4-4.1l-41.7-84.4L1214,1031.3z"/>
	<polygon class="st1" points="267.3,608.7 267.3,608.6 267.3,608.6 267.3,608.7 	"/>
	<polygon class="st1" points="267.3,608.9 267.3,608.9 267.3,608.7 267.3,608.7 	"/>
	<polygon class="st1" points="1041.4,946.5 1097.3,973.9 1214,1031 1214.1,1031 1171.5,841.1 	"/>
	<polygon class="st1" points="267.3,608.9 267.3,608.9 267.3,608.9 267.3,608.9 	"/>
	<polygon class="st1" points="213.8,662.6 213.9,662.7 213.9,662.6 	"/>
	<polygon class="st1" points="213.9,662.7 213.9,662.9 213.9,662.9 213.9,662.7 	"/>
	<polygon class="st1" points="213.9,662.7 213.9,662.9 214,662.8 	"/>
	<polygon class="st1" points="267.3,608.6 267.2,608.7 267.2,608.7 267.3,608.7 	"/>
	<path class="st1" d="M-1.6,875c0,25.6-0.1,51.1-0.1,76.7l41.2,27L-1.6,875z"/>
	<path class="st1" d="M-1.8,1047c0,3.9,0,7.7,0,11.6l23.4-19.9L-1.8,1047z"/>
	<polygon class="st1" points="30.1,257.5 30.1,257.5 31.2,257.7 31.2,257.7 	"/>
	<polygon class="st1" points="32.6,261.9 31.2,257.7 30.1,257.5 	"/>
	<path class="st1" d="M31.2,257.7l-32-99.9c0,15.3,0,30.7-0.1,46l30.9,53.8L31.2,257.7z"/>
	<path class="st1" d="M39.5,978.7l-41.2-27c0,8.3,0,16.5,0,24.8l54.5,35.7L39.5,978.7z"/>
	<path class="st1" d="M-1.8,1031.6c0,5.1,0,10.3,0,15.4l23.4-8.3l31.2-26.5L-1.8,1031.6z"/>
</g>
<path class="st3" d="M19.2,1216.3"/>
</svg>
