<svg xmlns="http://www.w3.org/2000/svg" width="112.243" height="90.513" viewBox="0 0 112.243 90.513">
  <g id="vimeo-icon" transform="translate(0 -2.018)">
    <path id="Path_1" data-name="Path 1" d="M95.9,2.018q16.29.428,16.346,18.511c0,.791-.027,1.615-.07,2.461q-.719,15.337-22.856,41.781Q66.47,92.472,50.552,92.531q-9.9,0-16.481-16.965l-4.62-15.506L24.886,44.574q-5.048-16.831-10.8-16.82-1.26,0-8.755,4.9L0,26.349l8.27-6.87,8.135-6.8q10.927-8.755,16.626-9.46a14.4,14.4,0,0,1,1.529-.07q11.7,0,14.586,16.82,1.6,9.595,2.665,15.593,1.042,6.009,1.739,8.383,3.869,15.91,8.345,15.98,3.44,0,10.6-10.37Q79.486,38.9,79.987,33.768a13.33,13.33,0,0,0,.14-1.949q0-6.954-7.635-6.946a24.515,24.515,0,0,0-8.275,1.61q7.915-24.4,30.42-24.466Z" transform="translate(0 0)"/>
  </g>
</svg>
