<svg xmlns="http://www.w3.org/2000/svg" width="92.301" height="111.605" viewBox="0 0 92.301 111.605">
  <g id="youtube-icon" transform="translate(-44.245)">
    <g id="Group_1" data-name="Group 1" transform="translate(44.245)">
      <path id="Path_2" data-name="Path 2" d="M134.927,227.324a11.695,11.695,0,0,0-9.966-9.092Q113.5,216.986,90.4,216.986t-34.5,1.245a11.3,11.3,0,0,0-6.415,2.927,11.829,11.829,0,0,0-3.613,6.165q-1.619,7.226-1.619,21.8,0,14.822,1.619,21.8a11.386,11.386,0,0,0,3.582,6.165,11.04,11.04,0,0,0,6.383,2.865q11.461,1.308,34.566,1.308t34.565-1.308a10.9,10.9,0,0,0,6.353-2.865,11.818,11.818,0,0,0,3.612-6.165q1.619-7.226,1.62-21.8Q136.546,234.3,134.927,227.324Zm-64.335,6.292H63.928v35.436H57.7V233.615H51.16v-5.854H70.592v5.854Zm16.815,35.436H81.864v-3.364q-3.363,3.8-6.353,3.8-2.864,0-3.611-2.3a15.414,15.414,0,0,1-.5-4.547V238.285h5.543v22.67a17.2,17.2,0,0,0,.063,2.18q.187,1.308,1.308,1.308,1.681,0,3.55-2.616V238.285h5.543v30.766Zm21.175-9.218a23.009,23.009,0,0,1-.558,6.23,4.313,4.313,0,0,1-4.422,3.424q-2.99,0-5.793-3.424v2.989H92.267V227.761h5.542v13.515q2.679-3.361,5.793-3.362,3.363,0,4.422,3.488a22.248,22.248,0,0,1,.558,6.165Zm21.051-5.106H118.485v5.418q0,4.3,2.864,4.3a2.383,2.383,0,0,0,2.491-2.242,31.045,31.045,0,0,0,.125-3.8h5.667v.809a27.58,27.58,0,0,1-.125,3.613,7.709,7.709,0,0,1-8.035,6.663,8,8,0,0,1-6.726-3.176q-1.805-2.3-1.805-7.225V248.312q0-4.92,1.742-7.224a8.516,8.516,0,0,1,13.267,0q1.684,2.3,1.682,7.224v6.416Z" transform="translate(-44.245 -169.653)"/>
      <path id="Path_3" data-name="Path 3" d="M292.589,336.043a4,4,0,0,0-2.8,1.371v18.745a4,4,0,0,0,2.8,1.37q2.428,0,2.43-4.173v-13.14Q295.019,336.042,292.589,336.043Z" transform="translate(-236.225 -262.739)"/>
      <path id="Path_4" data-name="Path 4" d="M387.383,336.043q-2.8,0-2.8,4.234v2.865h5.6v-2.865Q390.186,336.042,387.383,336.043Z" transform="translate(-310.341 -262.739)"/>
      <path id="Path_5" data-name="Path 5" d="M120.345,24.85V41.728h6.228V24.85L134.107,0h-6.352l-4.234,16.38L119.1,0h-6.6q1.744,5.232,4.048,11.647A105.569,105.569,0,0,1,120.345,24.85Z" transform="translate(-97.609)"/>
      <path id="Path_6" data-name="Path 6" d="M220.131,79a7.662,7.662,0,0,0,6.6-3.176q1.745-2.3,1.744-7.349v-10.9q0-4.982-1.744-7.287a8.384,8.384,0,0,0-13.141,0q-1.743,2.3-1.743,7.287v10.9q0,4.982,1.743,7.349A7.7,7.7,0,0,0,220.131,79ZM217.453,56.45q0-4.3,2.679-4.3t2.678,4.3V69.529q0,4.361-2.678,4.359t-2.679-4.359Z" transform="translate(-175.287 -36.832)"/>
      <path id="Path_7" data-name="Path 7" d="M313.371,80.336q3.116,0,6.416-3.862V79.9h5.667V48.822h-5.667V72.55q-1.869,2.679-3.551,2.678-1.122,0-1.308-1.37a16.264,16.264,0,0,1-.063-2.18V48.822H309.2V73.361a16.006,16.006,0,0,0,.5,4.671Q310.507,80.336,313.371,80.336Z" transform="translate(-251.402 -38.172)"/>
    </g>
  </g>
</svg>
